<?xml version="1.0"?>
<svg xmlns="http://www.w3.org/2000/svg">
	<symbol id="inbox" viewBox="0 0 32 32">
		<g id="_06_inbox-01" data-name="06 inbox-01">
			<path d="M28.66,13.88,25.42,5A3,3,0,0,0,22.6,3H9.4A3,3,0,0,0,6.58,5L3.34,13.88A2.05,2.05,0,0,0,3,15V26a3,3,0,0,0,3,3H26a3,3,0,0,0,3-3V15A2.05,2.05,0,0,0,28.66,13.88ZM24,9H8V8H24ZM7,11H25v2H7ZM9.4,5H22.6a1,1,0,0,1,.94.66l.12.34H8.34l.12-.34A1,1,0,0,1,9.4,5ZM26,27H6a1,1,0,0,1-1-1V15.18L5.06,15H26.94l.06.18V26A1,1,0,0,1,26,27Z"/>
			<path d="M18.49,21l-5,0h0a1.28,1.28,0,0,1-.89-.4A2.25,2.25,0,0,1,12,19v0l-2,0a4.28,4.28,0,0,0,1.21,3,3.27,3.27,0,0,0,2.3,1h0l5,0A3.81,3.81,0,0,0,22,19H20C20,20.09,19.31,21,18.49,21Z" />
		</g>
	</symbol>
	<symbol id="building_icon" viewBox="0 0 32 32">
    <g id="_20_building-08" data-name="20 building-08">
      <rect x="3" y="27" width="26" height="2"/>
      <path d="M26,12H6a1,1,0,0,1-.57-1.82l10-7a1,1,0,0,1,1.14,0l10,7A1,1,0,0,1,26,12ZM9.17,10H22.83L16,5.22Z"/>
      <path d="M26,29H6a1,1,0,0,1-1-1V25a1,1,0,0,1,1-1H26a1,1,0,0,1,1,1v3A1,1,0,0,1,26,29ZM7,27H25V26H7Z"/>
      <path d="M26,15H6a1,1,0,0,1-1-1V11a1,1,0,0,1,1-1H26a1,1,0,0,1,1,1v3A1,1,0,0,1,26,15ZM7,13H25V12H7Z"/>
      <rect x="15" y="14" width="2" height="11"/>
      <rect x="11" y="14" width="2" height="11"/>
      <rect x="19" y="14" width="2" height="11"/>
      <rect x="7" y="14" width="2" height="11"/>
      <rect x="23" y="14" width="2" height="11"/>
    </g>
	</symbol>
</svg>
